<svg xmlns="http://www.w3.org/2000/svg" viewBox="0 0 500 500"><g id="freepik--background-complete--inject-109"><rect y="382.4" width="500" height="0.25" style="fill:#ebebeb"></rect><path d="M237,337.8H43.91a5.71,5.71,0,0,1-5.7-5.71V60.66A5.71,5.71,0,0,1,43.91,55H237a5.71,5.71,0,0,1,5.71,5.71V332.09A5.71,5.71,0,0,1,237,337.8ZM43.91,55.2a5.46,5.46,0,0,0-5.45,5.46V332.09a5.46,5.46,0,0,0,5.45,5.46H237a5.47,5.47,0,0,0,5.46-5.46V60.66A5.47,5.47,0,0,0,237,55.2Z" style="fill:#ebebeb"></path><path d="M453.31,337.8H260.21a5.72,5.72,0,0,1-5.71-5.71V60.66A5.72,5.72,0,0,1,260.21,55h193.1A5.71,5.71,0,0,1,459,60.66V332.09A5.71,5.71,0,0,1,453.31,337.8ZM260.21,55.2a5.47,5.47,0,0,0-5.46,5.46V332.09a5.47,5.47,0,0,0,5.46,5.46h193.1a5.47,5.47,0,0,0,5.46-5.46V60.66a5.47,5.47,0,0,0-5.46-5.46Z" style="fill:#ebebeb"></path><rect x="174.44" y="391.92" width="26" height="0.25" style="fill:#ebebeb"></rect><rect x="52.46" y="389.21" width="54.1" height="0.25" style="fill:#ebebeb"></rect><rect x="147.12" y="401.21" width="26.32" height="0.25" style="fill:#ebebeb"></rect><rect x="258.23" y="399.53" width="38.83" height="0.25" style="fill:#ebebeb"></rect><rect x="305.96" y="399.53" width="10.69" height="0.25" style="fill:#ebebeb"></rect><rect x="395.35" y="395.31" width="54.56" height="0.25" style="fill:#ebebeb"></rect><path d="M408,338.26c-8.5-37.26,1.68-175.77,16-212.93-56.54,52.21-86.57,209.24-86.57,209.24S270.28,362.21,256,382.52l216.33-.11S441.27,351.5,408,338.26Z" style="fill:#e0e0e0"></path><path d="M409.05,338.26c-5.23,4.5-51.9.81-72.46-3.69-7.2-13.51,3.83-42.79,3.83-42.79s42.41-4.91,66.26,3C416.5,311.14,407.21,337.65,409.05,338.26Z" style="fill:#f0f0f0"></path><path d="M285.53,311.86h19.86L374.12,74.25a7.07,7.07,0,0,0-6.79-9h-5.15a7.07,7.07,0,0,0-6.79,5.1Z" style="fill:#f5f5f5"></path><path d="M303.44,313.71s14,16.58,12.41,34.14C313.67,372.61,284,382.4,284,382.4H197.17S272,352,284,313.71C291.32,312.77,303.44,313.71,303.44,313.71Z" style="fill:#ebebeb"></path><path d="M283.35,316.79h21.51a1.83,1.83,0,0,0,1.77-1.37l1-3.78a1.83,1.83,0,0,0-1.77-2.3H284.34a1.85,1.85,0,0,0-1.78,1.37l-1,3.78A1.84,1.84,0,0,0,283.35,316.79Z" style="fill:#e0e0e0"></path><path d="M108.87,278.74a.42.42,0,0,1-.24-.07L71.23,256a.46.46,0,0,1-.16-.65.48.48,0,0,1,.65-.16l37.22,22.58,51.75-16.08,32.52-40.22,11.67-50-14.52-51.12a.47.47,0,0,1,.32-.59.48.48,0,0,1,.59.33l14.55,51.24a.45.45,0,0,1,0,.23l-11.72,50.27a.72.72,0,0,1-.09.2l-32.69,40.4a.4.4,0,0,1-.22.16L109,278.72Z" style="fill:#e0e0e0"></path><path d="M113.93,237.5a.45.45,0,0,1-.25-.07L93.52,225.2a.46.46,0,0,1-.21-.28l-7.81-27.5a.39.39,0,0,1,0-.24L93,164.91a.44.44,0,0,1,.1-.19l20-24.71a.46.46,0,0,1,.23-.16l24.81-7.71a.49.49,0,0,1,.39.05l20.17,12.23a.5.5,0,0,1,.21.28l7.81,27.5a.49.49,0,0,1,0,.24l-7.52,32.27a.42.42,0,0,1-.09.19l-20,24.71a.46.46,0,0,1-.23.16l-24.81,7.71Zm-19.76-13,19.82,12,24.48-7.6,19.82-24.52,7.47-32L158,145.13l-19.83-12-24.47,7.6L93.91,165.23l-7.47,32.05Z" style="fill:#e0e0e0"></path><path d="M119.76,212.49a.48.48,0,0,1-.24-.07L109,206a.47.47,0,0,1-.21-.27l-4.07-14.33a.65.65,0,0,1,0-.24l3.92-16.81a.5.5,0,0,1,.1-.19l10.41-12.87a.53.53,0,0,1,.23-.16l12.92-4a.45.45,0,0,1,.39,0l10.5,6.38a.43.43,0,0,1,.21.27l4.07,14.33a.39.39,0,0,1,0,.24l-3.92,16.81a.66.66,0,0,1-.09.19l-10.41,12.87a.53.53,0,0,1-.23.16l-12.93,4A.32.32,0,0,1,119.76,212.49Zm-10.1-7.16,10.16,6.17,12.59-3.92,10.25-12.67,3.87-16.59-4-14-10.16-6.17L119.79,162l-10.25,12.67-3.87,16.59Z" style="fill:#e0e0e0"></path><path d="M126.1,185.28H126a.47.47,0,0,1-.35-.57L141.19,118a.47.47,0,0,1,.92.22l-15.55,66.71A.46.46,0,0,1,126.1,185.28Z" style="fill:#e0e0e0"></path><path d="M126.1,185.28a.49.49,0,0,1-.3-.1.49.49,0,0,1-.07-.67l48.63-60.13a.48.48,0,1,1,.74.6l-48.63,60.13A.48.48,0,0,1,126.1,185.28Z" style="fill:#e0e0e0"></path><path d="M126.1,185.28a.47.47,0,0,1-.14-.92l75.42-23.44a.47.47,0,1,1,.29.9l-75.43,23.44A.32.32,0,0,1,126.1,185.28Z" style="fill:#e0e0e0"></path><path d="M204.2,232.66a.44.44,0,0,1-.24-.07l-78.1-47.38a.46.46,0,0,1-.16-.65.47.47,0,0,1,.65-.15l78.1,47.37a.47.47,0,0,1-.25.88Z" style="fill:#e0e0e0"></path><path d="M162.48,313.36A.47.47,0,0,1,162,313L125.65,184.94a.47.47,0,0,1,.32-.59.48.48,0,0,1,.59.33l36.38,128.08a.48.48,0,0,1-.33.59Z" style="fill:#e0e0e0"></path><path d="M110.55,252h-.11a.47.47,0,0,1-.35-.57l15.55-66.71a.47.47,0,1,1,.92.22L111,251.63A.47.47,0,0,1,110.55,252Z" style="fill:#e0e0e0"></path><path d="M74.81,201.23a.49.49,0,0,1-.46-.34.48.48,0,0,1,.32-.59L126,184.36a.47.47,0,1,1,.28.9L75,201.2Z" style="fill:#e0e0e0"></path><path d="M79.67,242.7a.48.48,0,0,1-.3-.11.46.46,0,0,1-.07-.66l46.43-57.42a.48.48,0,1,1,.74.6L80,242.52A.45.45,0,0,1,79.67,242.7Z" style="fill:#e0e0e0"></path><path d="M126.1,185.28a.42.42,0,0,1-.24-.07L84.17,159.93a.48.48,0,0,1-.16-.65.47.47,0,0,1,.65-.16l41.69,25.29a.48.48,0,0,1,.16.65A.49.49,0,0,1,126.1,185.28Z" style="fill:#e0e0e0"></path><path d="M126.1,185.28a.46.46,0,0,1-.45-.34L109.5,128.08a.46.46,0,0,1,.32-.58.48.48,0,0,1,.59.32l16.15,56.86a.49.49,0,0,1-.33.59Z" style="fill:#e0e0e0"></path><polygon points="108.4 382.4 94.15 382.4 94.15 128.76 117.87 128.76 108.4 382.4" style="fill:#e0e0e0"></polygon><path d="M248.22,128.76H64.63a10.34,10.34,0,0,1-10.31-10.32h0a10.34,10.34,0,0,1,10.31-10.31H248.22a10.34,10.34,0,0,1,10.31,10.31h0A10.34,10.34,0,0,1,248.22,128.76Z" style="fill:#ebebeb"></path><polygon points="205.56 382.4 219.81 382.4 219.81 128.76 196.09 128.76 205.56 382.4" style="fill:#e0e0e0"></polygon><rect x="68.92" y="308.47" width="175" height="8.84" rx="4.42" style="fill:#ebebeb"></rect><polygon points="79.99 382.4 65.74 382.4 65.74 128.76 89.46 128.76 79.99 382.4" style="fill:#ebebeb"></polygon><polygon points="233.97 382.4 248.22 382.4 248.22 128.76 224.5 128.76 233.97 382.4" style="fill:#ebebeb"></polygon><path d="M126.82,110c.35-5.55-4.41-7.26-8.21-11.61s-5.46-25.91-4.24-31.69S98.53,60.9,94.79,64.43s5.36,20-1.35,27.74-19.27,11.5-19.37,16c15.62.86,34-.95,34.57,3.76s7.07.76,9.26-2.39-.15,14.15,5.84,13.54C125.75,122.84,126.35,117.26,126.82,110Z" style="fill:#f5f5f5"></path><path d="M100.9,58.45c5.53,2.44,16-.87,16.07,9.78s-7.28,9.18-7.18,4.55-8.49-3.34-6.9,8.16-9.53,1-9.71-4.74-5.52-8.54-1.7-12.76S96.54,56.53,100.9,58.45Z" style="fill:#e6e6e6"></path><path d="M105.33,61.54l-2.67-1.25c0-.06,2.58-5.64.92-9.2a5,5,0,0,0-3.51-2.67l.77-2.84a7.87,7.87,0,0,1,5.42,4.27C108.5,54.67,105.46,61.26,105.33,61.54Z" style="fill:#e0e0e0"></path><circle cx="188.06" cy="358.19" r="10.34" style="fill:#f5f5f5"></circle><circle cx="313.77" cy="147.04" r="10.34" style="fill:#f5f5f5"></circle><circle cx="331" cy="286.78" r="10.34" transform="matrix(0.16, -0.99, 0.99, 0.16, -5.1, 567.57)" style="fill:#f5f5f5"></circle><path d="M235.27,347.85c-4.1.85-4.8,1.54-5.65,5.64-.86-4.1-1.55-4.79-5.65-5.64,4.1-.86,4.79-1.55,5.65-5.65C230.47,346.3,231.17,347,235.27,347.85Z" style="fill:#e6e6e6"></path><path d="M385.7,145c-4.11.86-4.8,1.55-5.65,5.65-.86-4.1-1.55-4.79-5.65-5.65,4.1-.85,4.79-1.54,5.65-5.65C380.9,143.48,381.59,144.17,385.7,145Z" style="fill:#e6e6e6"></path><path d="M439.32,286.78c-4.11.85-4.8,1.54-5.65,5.65-.86-4.11-1.55-4.8-5.65-5.65,4.1-.86,4.79-1.55,5.65-5.65C434.52,285.23,435.21,285.92,439.32,286.78Z" style="fill:#e6e6e6"></path></g><g id="freepik--Shadow--inject-109"><ellipse id="freepik--path--inject-109" cx="250" cy="416.24" rx="193.89" ry="11.32" style="fill:#f5f5f5"></ellipse></g><g id="freepik--Character--inject-109"><path d="M398.5,332.25h-1c0-5.35-.2-10.58-.59-15.53l1-.08C398.3,321.62,398.5,326.87,398.5,332.25Z" style="fill:#407BFF"></path><path d="M395.12,302.35c-4.79-27.63-16.64-48.28-36.24-63.11l.61-.79c19.81,15,31.78,35.83,36.61,63.72Z" style="fill:#407BFF"></path><path d="M250,214.71c-93,0-145,31.55-145,117.54,0,65,46.09,84,146.33,84s143.67-19,143.67-84C395,246.26,343,214.71,250,214.71Z" style="fill:#407BFF"></path><path d="M130.92,294c-.37,1.73-1.41,3-2.32,2.78s-1.36-1.75-1-3.48,1.4-3,2.31-2.79S131.28,292.27,130.92,294Z" style="fill:#263238;opacity:0.2"></path><path d="M301.22,340.6c.41,1.73,0,3.29-.91,3.51s-2-1-2.38-2.73,0-3.29.91-3.5S300.82,338.88,301.22,340.6Z" style="fill:#263238;opacity:0.2"></path><path d="M199,403.74c.08,1.52-.81,2.8-2,2.86s-2.2-1.11-2.29-2.62a2.21,2.21,0,1,1,4.28-.24Z" style="fill:#263238;opacity:0.2"></path><path d="M372.14,368.63c-.38,1.47-1.34,2.49-2.15,2.28s-1.15-1.57-.77-3,1.34-2.49,2.15-2.28S372.52,367.16,372.14,368.63Z" style="fill:#263238;opacity:0.2"></path><path d="M206.6,400.9a1.35,1.35,0,1,1-1.39-1.6A1.53,1.53,0,0,1,206.6,400.9Z" style="fill:#263238;opacity:0.2"></path><path d="M356.13,269.78a1.34,1.34,0,1,1-2-.75A1.52,1.52,0,0,1,356.13,269.78Z" style="fill:#263238;opacity:0.2"></path><path d="M191.49,408.35a1.17,1.17,0,0,1-1.16-1.13c-.12-3.55-.16-7.22-.13-10.91a1.16,1.16,0,0,1,1.16-1.16h0a1.17,1.17,0,0,1,1.16,1.18c0,3.66,0,7.3.13,10.81a1.17,1.17,0,0,1-1.13,1.21Z" style="fill:#263238;opacity:0.2"></path><path d="M196.48,342.16l-.19,0a1.17,1.17,0,0,1-1-1.34c.43-2.61.9-5.3,1.39-8a1.16,1.16,0,0,1,2.29.42c-.49,2.66-.95,5.33-1.38,7.93A1.17,1.17,0,0,1,196.48,342.16Z" style="fill:#263238;opacity:0.2"></path><path d="M212,277.24a1.13,1.13,0,0,1-.36-.06,1.17,1.17,0,0,1-.75-1.47c3.62-11.19,7-19.65,9.12-22.61a1.17,1.17,0,0,1,1.9,1.35c-1.51,2.14-4.62,9-8.8,22A1.18,1.18,0,0,1,212,277.24Z" style="fill:#263238;opacity:0.2"></path><path d="M335.76,235.72c0,6.78-38.4,12.28-85.76,12.28s-85.76-5.5-85.76-12.28,38.4-16.66,85.76-16.66S335.76,228.93,335.76,235.72Z" style="fill:#263238"></path><path d="M250,219.07c-47.36,0-85.76,9.86-85.76,16.64,0,1.44,1.72,2.81,4.86,4.1,25.25-9.84,54-14.25,80.9-14.25s55.65,4.41,80.9,14.25c3.14-1.29,4.86-2.66,4.86-4.1C335.76,228.93,297.36,219.07,250,219.07Z" style="fill:#407BFF;opacity:0.4"></path><path d="M197.22,274.86c25.78.25,35.54,59.19-7.66,54.64S163.2,274.52,197.22,274.86Z" style="fill:#263238"></path><path d="M197.22,274.86c-30.75-.32-47.46,40.86-18.49,52.13-15.33-15.52.8-46.64,27.55-46.38a16,16,0,0,1,4.34.63C207,277.37,202.46,274.91,197.22,274.86Z" style="fill:#407BFF;opacity:0.4"></path><path d="M302.78,274.86c-25.78.25-35.54,59.19,7.66,54.64S336.8,274.52,302.78,274.86Z" style="fill:#263238"></path><path d="M302.78,274.86c30.75-.32,47.46,40.86,18.49,52.13,15.33-15.52-.8-46.64-27.55-46.38a16,16,0,0,0-4.34.63C293,277.37,297.54,274.91,302.78,274.86Z" style="fill:#407BFF;opacity:0.4"></path><path d="M250,361.48c-55,0-108-23.11-108-23.11,0,31.3,45.49,62.6,108,62.6s108-31.3,108-62.6C358,338.37,305,361.48,250,361.48Z" style="fill:#263238"></path><path d="M220.94,349.49S218.1,364,215,372.91c-11.25-2.72-27.51-9.51-27.51-9.51l2.1-18.24Z" style="fill:#407BFF"></path><path d="M220.94,349.49S218.1,364,215,372.91c5-1.27,6.94-3.24,6.94-3.24l4.51-19.76Z" style="fill:#407BFF;opacity:0.4"></path><path d="M279.06,349.49S281.9,364,285,372.91c11.25-2.72,27.51-9.51,27.51-9.51l-2.1-18.24Z" style="fill:#407BFF"></path><path d="M279.06,349.49S281.9,364,285,372.91c-5.05-1.27-6.94-3.24-6.94-3.24l-4.51-19.76Z" style="fill:#407BFF;opacity:0.4"></path><path d="M307.3,408.35h0a1.18,1.18,0,0,1-1.14-1.19c.07-3.62.11-7.27.11-10.84a1.16,1.16,0,0,1,1.16-1.17h0a1.17,1.17,0,0,1,1.17,1.17c0,3.58,0,7.25-.11,10.89A1.18,1.18,0,0,1,307.3,408.35Z" style="fill:#263238;opacity:0.2"></path><path d="M306.44,364a1.17,1.17,0,0,1-1.17-1.1c-.55-9.3-1.34-18.59-2.35-27.6a1.17,1.17,0,1,1,2.32-.26c1,9.06,1.81,18.38,2.36,27.73a1.16,1.16,0,0,1-1.1,1.23Z" style="fill:#263238;opacity:0.2"></path><path d="M289.8,266.09a1.15,1.15,0,0,1-1.09-.78A67.22,67.22,0,0,0,284,254.36a1.16,1.16,0,1,1,2-1.17,68,68,0,0,1,4.89,11.35,1.16,1.16,0,0,1-.71,1.48A1.07,1.07,0,0,1,289.8,266.09Z" style="fill:#263238;opacity:0.2"></path><path d="M144.06,394.64a1.15,1.15,0,0,1-1-.66,148.15,148.15,0,0,1-10.63-28.82,1.16,1.16,0,1,1,2.25-.57A146.65,146.65,0,0,0,145.11,393a1.17,1.17,0,0,1-.54,1.56A1.13,1.13,0,0,1,144.06,394.64Z" style="fill:#263238;opacity:0.2"></path><path d="M131,353.35a1.18,1.18,0,0,1-1.15-1c-.59-3.92-1-7.91-1.26-11.84a1.19,1.19,0,0,1,1.1-1.24,1.17,1.17,0,0,1,1.23,1.1c.23,3.86.65,7.78,1.23,11.63a1.16,1.16,0,0,1-1,1.32Z" style="fill:#263238;opacity:0.2"></path><path d="M129.48,332.42h0a1.17,1.17,0,0,1-1.15-1.18A136.54,136.54,0,0,1,142.9,271.8c7.89-15.66,16.38-25.2,20.17-27.78a1.16,1.16,0,1,1,1.32,1.92c-7,4.79-33.27,38.28-33.75,85.32A1.17,1.17,0,0,1,129.48,332.42Z" style="fill:#263238;opacity:0.2"></path><path d="M355.42,394.64a1.19,1.19,0,0,1-.51-.12,1.17,1.17,0,0,1-.53-1.56c21.51-44,15.11-82.38,6-106.78a1.15,1.15,0,0,1,.68-1.5,1.17,1.17,0,0,1,1.5.68c9.31,24.83,15.82,63.83-6,108.62A1.16,1.16,0,0,1,355.42,394.64Z" style="fill:#263238;opacity:0.2"></path><path d="M346.87,258.79a1.17,1.17,0,0,1-1-.51c-4.8-6.94-8.82-11-10.81-12.34a1.16,1.16,0,0,1,1.31-1.92c2.26,1.54,6.44,5.75,11.42,12.94a1.17,1.17,0,0,1-.3,1.62A1.15,1.15,0,0,1,346.87,258.79Z" style="fill:#263238;opacity:0.2"></path><path d="M293.4,120.74H203c-3.2,26.57-5.48,58-5.89,83.22-.19,11.86-4,22.33-3.21,30.25a5.16,5.16,0,0,0,3.39,4.36c23.07,8.44,85.48,4.35,103.67,2.78,3.16-.27,7.54-3,7.41-6.14-.28-6.54-5.24-32.56-5.24-32.56s-2.35-47.22-6.72-67.62C295.27,129.89,294.48,125.09,293.4,120.74Z" style="fill:#263238"></path><ellipse cx="290.1" cy="177.15" rx="17.81" ry="23.36" style="fill:#263238"></ellipse><ellipse cx="209.58" cy="177.15" rx="17.81" ry="23.36" style="fill:#263238"></ellipse><path d="M255.17,172.64c32.28-.88,37.87,10.13,13.59,25.26-8.87,5.52-22.19,5.67-31.42.45-20.75-11.74-24-26.86,16-25.71C253.92,172.66,254.56,172.66,255.17,172.64Z" style="fill:#fff;opacity:0.2"></path><path d="M265.7,215.83c-24-8.78-52.37,5.74-54.73,25.28,21.7,4,56.49,2.57,77.28,1.14C286.67,231.67,278.27,220.44,265.7,215.83Z" style="fill:#fff;opacity:0.2"></path><path d="M215.9,150.73c8.41-5.63,21.33-2.36,26.87,8.37C235.24,163.58,215.22,162.87,215.9,150.73Z" style="fill:#fff"></path><path d="M253.27,171.37c7.33-.35,7.66,3.78,0,9C246.8,177.27,243.71,170.9,253.27,171.37Z" style="fill:#fff"></path><path d="M244.68,190.78a22.68,22.68,0,0,1-8.16-1.83,1,1,0,0,1-.57-1.34,1,1,0,0,1,1.33-.58c5.35,2.13,9.35,2.26,11.88.39,3.59-2.63,3.19-8.55,3.18-8.61a1,1,0,0,1,.95-1.11,1,1,0,0,1,1.1,1c0,.29.5,7.11-4,10.42A9.34,9.34,0,0,1,244.68,190.78Z" style="fill:#fff"></path><path d="M262.1,190.78a9.4,9.4,0,0,1-5.72-1.71c-4.5-3.31-4-10.13-4-10.42a1,1,0,0,1,1.11-1,1,1,0,0,1,.95,1.11c0,.06-.41,6,3.17,8.61,2.54,1.87,6.53,1.73,11.88-.39a1,1,0,0,1,.76,1.92A22.64,22.64,0,0,1,262.1,190.78Z" style="fill:#fff"></path><path d="M180.86,199.67a.58.58,0,0,1-.49-.26.6.6,0,0,1,.18-.81C211,179,242.52,181,242.83,181.05a.58.58,0,1,1-.08,1.16c-.31,0-31.45-2-61.58,17.37A.56.56,0,0,1,180.86,199.67Z" style="fill:#e0e0e0"></path><path d="M178.83,184a.59.59,0,0,1-.54-.36.58.58,0,0,1,.31-.76c33.47-13.87,61.51-6.09,61.79-6a.58.58,0,1,1-.32,1.12c-.28-.08-27.95-7.74-61,6A.63.63,0,0,1,178.83,184Z" style="fill:#e0e0e0"></path><path d="M324.63,199.67a.61.61,0,0,1-.31-.09c-30.13-19.35-61.26-17.39-61.57-17.37a.58.58,0,0,1-.09-1.16c.31,0,31.82-2,62.29,17.55a.58.58,0,0,1-.32,1.07Z" style="fill:#e0e0e0"></path><path d="M265.26,178a.58.58,0,0,1-.53-.36.58.58,0,0,1,.31-.76c.27-.11,27.26-11,62.07-1a.58.58,0,0,1,.4.72.57.57,0,0,1-.72.4c-34.42-9.88-61,.87-61.3,1A.62.62,0,0,1,265.26,178Z" style="fill:#e0e0e0"></path><path d="M235.13,152.07c0,4.17-2.09,7.55-4.66,7.55s-4.67-3.38-4.67-7.55,2.09-7.54,4.67-7.54S235.13,147.9,235.13,152.07Z" style="fill:#263238"></path><path d="M288.44,150.73c-8.4-5.63-21.33-2.36-26.87,8.37C269.1,163.58,290.78,163.39,288.44,150.73Z" style="fill:#fff"></path><path d="M269.14,152.59c0,4.17,2.09,7.55,4.67,7.55s4.66-3.38,4.66-7.55-2.09-7.54-4.66-7.54S269.14,148.43,269.14,152.59Z" style="fill:#263238"></path><path d="M336.75,120.57c0,6.78-38.32,12.51-85.68,12.78s-85.79-5-85.83-11.79,38.25-25,85.61-25.32S336.71,113.78,336.75,120.57Z" style="fill:#407BFF"></path><path d="M301.41,107.12c.77.51,1.2,1.22.95,1.6s-1.07.25-1.84-.26-1.2-1.22-.95-1.59S300.64,106.61,301.41,107.12Z" style="fill:#263238;opacity:0.2"></path><path d="M310.4,111.82c1.77,1.17,2.75,2.81,2.18,3.66s-2.45.59-4.22-.58-2.74-2.81-2.18-3.66S308.63,110.65,310.4,111.82Z" style="fill:#263238;opacity:0.2"></path><path d="M273.19,123a1.17,1.17,0,0,1-1.14-.76,35.72,35.72,0,0,0-9.6-14.41A1.16,1.16,0,1,1,263.9,106c.26.21,6.54,5.29,10.33,15.42a1.15,1.15,0,0,1-.68,1.49A1.17,1.17,0,0,1,273.19,123Z" style="fill:#263238;opacity:0.2"></path><path d="M190,120.34a1.16,1.16,0,0,1-.63-2.17c.17-.1,17.24-9.93,43.15-12.91a1.16,1.16,0,1,1,.26,2.31c-25.39,2.92-42.07,12.52-42.24,12.61A1.17,1.17,0,0,1,190,120.34Z" style="fill:#263238;opacity:0.2"></path><path d="M333.92,116.59c-9.29,5.4-43,9.55-83.15,9.78-39.71.23-73.16-3.44-82.94-8.64-1.69,1.47-2.6,2.79-2.6,3.83.05,6.79,38.48,12.06,85.83,11.79s85.73-6,85.7-12.78C336.74,119.49,335.77,118.12,333.92,116.59Z" style="fill:#263238;opacity:0.4"></path><path d="M268.27,96.65a15.19,15.19,0,0,1-15.08,4.59,15.16,15.16,0,0,1,2.9-15.49c6.47-7.23,20.53-10.68,20.53-10.68S274.73,89.42,268.27,96.65Z" style="fill:#407BFF"></path><path d="M268.27,96.65a15.19,15.19,0,0,1-15.08,4.59,15.16,15.16,0,0,1,2.9-15.49c6.47-7.23,20.53-10.68,20.53-10.68S274.73,89.42,268.27,96.65Z" style="fill:#fff;opacity:0.5"></path><path d="M280.46,87s-3.68,23.68-7.94,29.88c7.9-.21,14.69-1.63,18.69-6C285.93,94.7,280.46,87,280.46,87Z" style="fill:#263238"></path><path d="M204.61,113c4.41,5,12.54,6.18,21.83,6.2,0,0-7.87-19-18-29.11C207.13,96.6,205.82,104.39,204.61,113Z" style="fill:#263238"></path><path d="M245.51,101.34c-.88-16.61-9.3-36.4-9.3-36.4a28.8,28.8,0,0,1,16-6.24c9,7.35,5.07,33.25,3,43.68a4.6,4.6,0,0,1-4.85,4l-.72-.08A5,5,0,0,1,245.51,101.34Z" style="fill:#407BFF"></path><path d="M245.51,101.34c-.88-16.61-9.3-36.4-9.3-36.4a28.8,28.8,0,0,1,16-6.24c9,7.35,5.07,33.25,3,43.68a4.6,4.6,0,0,1-4.85,4l-.72-.08A5,5,0,0,1,245.51,101.34Z" style="fill:#263238;opacity:0.5"></path><path d="M238.85,102.24C237.1,86,222.26,69.15,222.26,69.15a31.12,31.12,0,0,1,14.92-9.41c10.11,5,10.9,30.55,10.74,42,0,3-2.33,5.28-5,5h0A4.88,4.88,0,0,1,238.85,102.24Z" style="fill:#407BFF"></path><path d="M238.85,102.24C237.1,86,222.26,69.15,222.26,69.15a31.12,31.12,0,0,1,14.92-9.41c10.11,5,10.9,30.55,10.74,42,0,3-2.33,5.28-5,5h0A4.88,4.88,0,0,1,238.85,102.24Z" style="fill:#263238;opacity:0.5"></path><path d="M247.94,102.3h-.08a.58.58,0,0,1-.52-.64c0-.2,1.93-20.64-5-35.12a.58.58,0,1,1,1.05-.5c7,14.78,5.09,35.53,5.07,35.73A.58.58,0,0,1,247.94,102.3Z" style="fill:#fff"></path></g></svg>