<svg xmlns="http://www.w3.org/2000/svg" viewBox="0 0 500 500"><g id="freepik--background-complete--inject-108"><rect y="382.4" width="500" height="0.25" style="fill:#ebebeb"></rect><rect x="416.78" y="398.49" width="33.12" height="0.25" style="fill:#ebebeb"></rect><rect x="260.33" y="395.36" width="12.89" height="0.25" style="fill:#ebebeb"></rect><rect x="322.53" y="396.42" width="27.14" height="0.25" style="fill:#ebebeb"></rect><rect x="359.67" y="389.21" width="56.11" height="0.25" style="fill:#ebebeb"></rect><rect x="52.46" y="400.78" width="26.53" height="0.25" style="fill:#ebebeb"></rect><rect x="87.89" y="400.78" width="23" height="0.25" style="fill:#ebebeb"></rect><rect x="131" y="395.24" width="60.81" height="0.25" style="fill:#ebebeb"></rect><path d="M237,337.8H43.91a5.71,5.71,0,0,1-5.7-5.71V60.66A5.71,5.71,0,0,1,43.91,55H237a5.71,5.71,0,0,1,5.71,5.71V332.09A5.71,5.71,0,0,1,237,337.8ZM43.91,55.2a5.46,5.46,0,0,0-5.45,5.46V332.09a5.46,5.46,0,0,0,5.45,5.46H237a5.47,5.47,0,0,0,5.46-5.46V60.66A5.47,5.47,0,0,0,237,55.2Z" style="fill:#ebebeb"></path><path d="M453.31,337.8H260.21a5.72,5.72,0,0,1-5.71-5.71V60.66A5.72,5.72,0,0,1,260.21,55h193.1A5.71,5.71,0,0,1,459,60.66V332.09A5.71,5.71,0,0,1,453.31,337.8ZM260.21,55.2a5.47,5.47,0,0,0-5.46,5.46V332.09a5.47,5.47,0,0,0,5.46,5.46h193.1a5.47,5.47,0,0,0,5.46-5.46V60.66a5.47,5.47,0,0,0-5.46-5.46Z" style="fill:#ebebeb"></path><rect x="65.5" y="67.74" width="220.91" height="111.67" transform="translate(351.91 247.16) rotate(180)" style="fill:#e6e6e6"></rect><rect x="58.46" y="67.74" width="225.01" height="111.67" transform="translate(341.94 247.16) rotate(180)" style="fill:#f0f0f0"></rect><rect x="121.77" y="17.71" width="98.4" height="211.74" transform="translate(294.55 -47.39) rotate(90)" style="fill:#fff"></rect><path d="M404,201.68h0a3.14,3.14,0,0,0,3.14-3.13v-97A3.14,3.14,0,0,0,404,98.4h0a3.14,3.14,0,0,0-3.13,3.13v97A3.14,3.14,0,0,0,404,201.68Z" style="fill:#f5f5f5"></path><path d="M381.46,205.38h45.09a7.41,7.41,0,0,0-7.4-7.4H388.86a7.4,7.4,0,0,0-7.4,7.4Z" style="fill:#f0f0f0"></path><path d="M387.73,143h0a1.57,1.57,0,0,0,1.56-1.57V93.73a1.56,1.56,0,0,0-1.56-1.56h0a1.56,1.56,0,0,0-1.57,1.56v47.71A1.57,1.57,0,0,0,387.73,143Z" style="fill:#f0f0f0"></path><path d="M440.06,110.24a8.28,8.28,0,0,0,8-10.28c-3.3-13.25-13.38-34.63-44.09-34.63S363.21,86.71,359.92,100a8.27,8.27,0,0,0,8,10.28Z" style="fill:#e0e0e0"></path><rect x="363.44" y="205.49" width="84.89" height="176.9" style="fill:#e6e6e6"></rect><polygon points="430.13 382.4 448.33 382.4 448.33 351.88 411.03 351.88 430.13 382.4" style="fill:#f5f5f5"></polygon><rect x="188.13" y="205.49" width="84.89" height="176.9" style="fill:#e6e6e6"></rect><rect x="257.14" y="205.49" width="191.2" height="166.4" style="fill:#f5f5f5"></rect><rect x="271.26" y="220.94" width="162.95" height="34.87" style="fill:#f0f0f0"></rect><polygon points="275.35 382.4 257.14 382.4 257.14 351.88 294.44 351.88 275.35 382.4" style="fill:#f5f5f5"></polygon><rect x="271.26" y="271.26" width="162.95" height="34.87" style="fill:#f0f0f0"></rect><rect x="271.26" y="321.58" width="162.95" height="34.87" style="fill:#f0f0f0"></rect><polygon points="81.89 241.72 197.34 241.72 195.62 382.4 80.17 382.4 81.89 241.72" style="fill:#e0e0e0"></polygon><polygon points="87.18 225.71 200.32 225.71 188 382.4 74.86 382.4 87.18 225.71" style="fill:#f0f0f0"></polygon><polygon points="81.34 225.71 194.48 225.71 182.15 382.4 69.01 382.4 81.34 225.71" style="fill:#f5f5f5"></polygon><polygon points="168.52 372.74 179.33 235.37 94.97 235.37 84.16 372.74 168.52 372.74" style="fill:#fff"></polygon><polygon points="355.12 181 325.79 181 333.88 205.5 363.21 205.5 355.12 181" style="fill:#e0e0e0"></polygon><path d="M356.88,163.38c-24.35-14.13-45.4,3.29-46.44,22.56-7.76,3.19.36,5.14.36,5.14l-4.35,6.17c-2.2,3.13,1.2,8.25,5.49,8.25h26.41a3.77,3.77,0,0,0,3.8-2.89,5.28,5.28,0,0,1,1.21-2.26l.32.17c2.18,1,4.25.64,4.63-.76a2.3,2.3,0,0,0-.25-1.61,16.53,16.53,0,0,1,2.76-.17C366.14,198.66,371.29,171.73,356.88,163.38Z" style="fill:#f0f0f0"></path><path d="M344.21,183.28c1.07,4.87-.92,9.44-4.45,10.22s-7.26-2.54-8.33-7.41.93-9.44,4.46-10.21S343.14,178.42,344.21,183.28Z" style="fill:#e0e0e0"></path><path d="M323.14,185.06c-2,3.1-5.11,4.65-7,3.45s-1.74-4.67.26-7.77,5.11-4.64,7-3.45S325.13,182,323.14,185.06Z" style="fill:#e0e0e0"></path><path d="M334.18,159.73c2.12,2.33,7.44,2.59,12.92.81.72-6.28-.74-19.8-.61-23.25a9.65,9.65,0,0,0-11,.28S335.92,153.79,334.18,159.73Z" style="fill:#e0e0e0"></path><path d="M341.14,131.44c-3.19.17-4.58-2.22-3.68-6.06s4.39-5.63,3.06-9.31C344.34,120.46,347.3,131.11,341.14,131.44Z" style="fill:#f0f0f0"></path><path d="M340.33,130.91c1.84.32,2.81-1,2.55-3.26s-2.15-3.57-1.12-5.61C339.24,124.32,336.78,130.29,340.33,130.91Z" style="fill:#fafafa"></path><path d="M340.94,136a.52.52,0,0,1-.43-.24c-1.21-2-.3-5.91-.26-6.07a.5.5,0,0,1,.61-.37.5.5,0,0,1,.37.6c-.24,1-.69,4,.13,5.31a.51.51,0,0,1-.42.77Z" style="fill:#e0e0e0"></path><path d="M340.42,134.72c-2.2,1-6.09.28-6.09,1.86s1.42,3.56.56,5.73,1.05,5.61,1.67,2.38,2.27-7.08,3.66-5.05-1.5,8.5,1.53,9.53.39-6.53.94-8.14,2.84-1.36,3.39.8,2,1.73,1.22-1.19.64-3.47-.27-4.61A5.45,5.45,0,0,0,340.42,134.72Z" style="fill:#f0f0f0"></path></g><g id="freepik--Shadow--inject-108"><ellipse id="freepik--path--inject-108" cx="250" cy="416.24" rx="193.89" ry="11.32" style="fill:#f5f5f5"></ellipse></g><g id="freepik--Cat--inject-108"><path d="M140.13,159.48c14.92-36,72.29-73.08,136.47-59.28-24.07,7.09-65,57.1-54.68,105.21C179.22,191.92,140.13,159.48,140.13,159.48Z" style="fill:#407BFF"></path><path d="M140.13,159.48c14.92-36,72.29-73.08,136.47-59.28-24.07,7.09-65,57.1-54.68,105.21C179.22,191.92,140.13,159.48,140.13,159.48Z" style="opacity:0.30000000000000004"></path><polygon points="218.4 124.03 222.85 129.98 230.27 129.69 225.99 135.76 228.56 142.73 221.46 140.53 215.63 145.13 215.53 137.7 209.35 133.57 216.38 131.18 218.4 124.03" style="fill:#407BFF"></polygon><polygon points="168.61 132.67 173.06 138.62 180.48 138.33 176.2 144.4 178.77 151.37 171.68 149.17 165.84 153.77 165.74 146.34 159.56 142.22 166.6 139.82 168.61 132.67" style="fill:#407BFF"></polygon><polygon points="201.69 114.64 200.61 120.73 205.03 125.07 198.9 125.94 196.14 131.48 193.42 125.92 187.3 125 191.75 120.7 190.73 114.59 196.19 117.5 201.69 114.64" style="fill:#407BFF"></polygon><polygon points="208.96 146.54 207.89 152.63 212.31 156.97 206.18 157.84 203.42 163.38 200.7 157.81 194.58 156.9 199.03 152.6 198 146.49 203.47 149.4 208.96 146.54" style="fill:#407BFF"></polygon><polygon points="223.06 104.58 224.23 110.66 229.9 113.14 224.49 116.13 223.88 122.29 219.36 118.06 213.31 119.39 215.94 113.78 212.81 108.44 218.95 109.21 223.06 104.58" style="fill:#407BFF"></polygon><polygon points="251.49 106.73 248.18 109.88 248.89 114.4 244.87 112.22 240.79 114.3 241.62 109.8 238.39 106.57 242.92 105.97 245 101.89 246.97 106.02 251.49 106.73" style="fill:#407BFF"></polygon><path d="M268.22,215.79c-7.67,7.65-47.82-1.26-96.31-24.61s-84-50.19-79.28-60,46.09,5.25,96.3,24.6C242.86,176.62,282.55,201.48,268.22,215.79Z" style="fill:#263238"></path><path d="M171,121.67c-6.5-.56-10.89,5.28-13.71,10.25a3.1,3.1,0,0,0,2.09,4.58c14.19,2.85,44.21,12.24,62.18,27.14a3.1,3.1,0,0,0,4.79-1A138.37,138.37,0,0,0,232,147.73a3.12,3.12,0,0,0-1.11-3.49C216.34,133.42,194.28,123.69,171,121.67Z" style="fill:#263238"></path><path d="M190.12,148.89a20.91,20.91,0,0,1-7.18-.9c-8.7-2.72-12.63-10.56-8.76-17.53s14.06-10.43,22.76-7.71a16.48,16.48,0,0,1,5.91,3.18c-7.78-2.13-16.68,1-20.11,7.2S182.62,146.26,190.12,148.89Z" style="fill:#fff"></path><path d="M155.34,164.18a64,64,0,0,0-36.14,13.35,49.72,49.72,0,0,0,25.62,2.12Z" style="fill:#263238"></path><path d="M332.32,366.62l-37.85-24.49c12.49,41.23,11.24,65.94,11.24,65.94s-11.42-9.12-13.26,4.27l22.16,3.9S334.42,384.93,332.32,366.62Z" style="fill:#263238"></path><path d="M155,365.07l-38-34.76c22.52,49.59,26.19,79.43,26.19,79.43s-13-7-12.17,6.5h22.5S160.67,382.74,155,365.07Z" style="fill:#263238"></path><path d="M426.47,225.54c-40.63-20.46-53.55,39-87.81,45l4.06,5.47c21.69-2.36,30.16-17.44,45.56-31.52s40.41-14.32,50.63,12.93c16.63,44.31-3.24,80.25-27.27,88.82-20.11,7.17-15,20.34-2.15,19.42C462.27,361.89,474,249.49,426.47,225.54Z" style="fill:#407BFF"></path><path d="M119.76,208.3c-20.6,87.63-11.82,153.27,51.92,175.54S325.29,413.56,358,376.89s30.89-129.64-72.4-118.4-61.87-51.69-85.35-80.84C178.63,150.75,132.9,152.37,119.76,208.3Z" style="fill:#407BFF"></path><path d="M148.34,205.19c-.12,1.41-2.3,2.37-4.87,2.15s-4.54-1.54-4.42-3,2.3-2.37,4.86-2.15S148.46,203.78,148.34,205.19Z" style="fill:#fff;opacity:0.1"></path><path d="M362.81,281.65v0c-13.69-16.79-38.21-27.38-77.17-23.14-58.15,6.33-70.44-10.85-74.25-32.28-26.83,9.27-10.38,69.12,53.7,91.46C306,331.93,374.88,308.59,362.81,281.65Z" style="opacity:0.1"></path><path d="M187,376.9l-31.65-11.83c20,32,19.59,44.67,19.59,44.67s-13.88-7-11.35,6.5h22.5S193.48,392.9,187,376.9Z" style="fill:#407BFF"></path><path d="M376.51,331.36l-46.58,33.71c13.71,27,10.53,44.67,10.53,44.67s-12.07-7-13,6.5h22.5S372,378,376.51,331.36Z" style="fill:#407BFF"></path><path d="M141,181.67c7.34-1.82,15.06.66,16.06,3.33s-6.66,5.83-11,5.83S135.62,183,141,181.67Z" style="fill:#263238"></path><path d="M157.71,202.74c-4.86,0-9.26-1.12-11.64-3.69-1.69-1.81-3-5.19.05-11a.49.49,0,0,1,.67-.21.5.5,0,0,1,.21.68c-2.26,4.21-2.33,7.51-.2,9.8,4.32,4.66,16.61,4.11,24.72.51a.49.49,0,0,1,.66.25.5.5,0,0,1-.25.66A36.54,36.54,0,0,1,157.71,202.74Z" style="fill:#263238"></path><path d="M136.62,200.51a8,8,0,0,1-4.74-1.24A4.29,4.29,0,0,1,130,196a.5.5,0,0,1,.5-.5.49.49,0,0,1,.5.49,3.31,3.31,0,0,0,1.48,2.49c1.63,1.14,5.24,1.91,13.27-.88a.5.5,0,0,1,.63.31.5.5,0,0,1-.3.64A30.24,30.24,0,0,1,136.62,200.51ZM131,196h0Z" style="fill:#263238"></path><ellipse cx="163.62" cy="177.27" rx="3.41" ry="2.51" transform="translate(-33.4 316.49) rotate(-82.54)" style="fill:#fff"></ellipse><path d="M145.17,176.34c-.11,1.88-1.33,3.4-2.72,3.39s-2.43-1.52-2.32-3.4,1.34-3.39,2.73-3.39S145.28,174.47,145.17,176.34Z" style="fill:#fff"></path><path d="M249.57,375.86c2.87-28.15,78.67-42.6,77.87-14.6S246.82,402.75,249.57,375.86Z" style="opacity:0.1"></path><path d="M427.29,339.43a6.42,6.42,0,0,0-5.23,1.17,40,40,0,0,1-10.42,5.64c-20.11,7.17-15,20.34-2.15,19.42,10.92-.78,20.09-6.21,27.33-14.55v0C437.31,344.5,433.29,340.81,427.29,339.43Z" style="opacity:0.2"></path><path d="M228.2,341.71c-.74-9.43,15-7.95,14.39-1.69C241.86,347.93,228.67,347.76,228.2,341.71Z" style="opacity:0.1"></path><path d="M123.31,299.71c-.74-9.43,15-7.95,14.39-1.69C137,305.93,123.78,305.76,123.31,299.71Z" style="opacity:0.1"></path><path d="M92.11,197.83a.49.49,0,0,1-.44-.26.51.51,0,0,1,.2-.68c17-9.29,42.58-7.63,42.83-7.61a.51.51,0,0,1,.47.53.5.5,0,0,1-.54.47c-.25,0-25.5-1.66-42.28,7.49A.53.53,0,0,1,92.11,197.83Z" style="fill:#263238"></path><path d="M102.67,204.17a.51.51,0,0,1-.4-.2.5.5,0,0,1,.09-.7c11.87-9.2,29.59-11.07,29.77-11.08a.5.5,0,0,1,.1,1c-.18,0-17.62,1.86-29.26,10.88A.5.5,0,0,1,102.67,204.17Z" style="fill:#263238"></path><path d="M203.13,197.83a.53.53,0,0,1-.24-.06c-16.79-9.15-42-7.51-42.28-7.49a.5.5,0,0,1-.07-1c.26,0,25.79-1.68,42.83,7.61a.51.51,0,0,1,.2.68A.49.49,0,0,1,203.13,197.83Z" style="fill:#263238"></path><path d="M192.58,204.17a.51.51,0,0,1-.31-.11c-11.63-9-29.08-10.86-29.25-10.88a.5.5,0,0,1-.45-.55.5.5,0,0,1,.55-.44c.17,0,17.9,1.88,29.76,11.08a.5.5,0,0,1,.09.7A.5.5,0,0,1,192.58,204.17Z" style="fill:#263238"></path><path d="M165.36,167c4.64-.56,12.45,2.84,10.63,5.74S158.64,167.83,165.36,167Z" style="fill:#263238"></path><path d="M148.52,165.61c-4.59-.92-12.63,1.87-11,4.9S155.15,166.94,148.52,165.61Z" style="fill:#263238"></path><path d="M184.75,167.32a64,64,0,0,1,34.87,16.4,49.57,49.57,0,0,1-25.71-.09C186.59,178.48,183.27,173.05,184.75,167.32Z" style="fill:#407BFF"></path><path d="M184.75,167.32a64,64,0,0,1,34.87,16.4,49.57,49.57,0,0,1-25.71-.09C186.59,178.48,183.27,173.05,184.75,167.32Z" style="opacity:0.30000000000000004"></path></g></svg>